<?xml version="1.0" encoding="utf-8"?>
<!-- Generator: Adobe Illustrator 24.0.0, SVG Export Plug-In . SVG Version: 6.00 Build 0)  -->
<svg version="1.1" id="Calque_1" xmlns="http://www.w3.org/2000/svg" xmlns:xlink="http://www.w3.org/1999/xlink" x="0px" y="0px"
	 viewBox="0 0 414 317" style="enable-background:new 0 0 414 317;" xml:space="preserve">
<style type="text/css">
	.st0{clip-path:url(#SVGID_2_);}
	.st1{fill:none;stroke:#FFFFFF;stroke-miterlimit:10;}
	.st2{fill:#1DBAE1;}
</style>
<g>
	<defs>
		<rect id="SVGID_1_" y="0" width="414" height="317"/>
	</defs>
	<clipPath id="SVGID_2_">
		<use xlink:href="#SVGID_1_"  style="overflow:visible;"/>
	</clipPath>
	<g class="st0">
		<path class="st1" d="M411.2,156L159.6,7.2l-3.2,89.5l-56.9,163l-59.4,17.3"/>
		<path class="st1" d="M12.9,304.1L55,114l101.4-17.3"/>
		<path class="st2" d="M13.1,314.2c5.5,0,10-4.5,10-10s-4.5-10-10-10c-5.5,0-10,4.5-10,10S7.6,314.2,13.1,314.2z"/>
		<path class="st2" d="M231.8,62.3c7.1,0,12.9-5.8,12.9-12.9c0-7.1-5.8-12.9-12.9-12.9c-7.1,0-12.9,5.8-12.9,12.9
			C218.9,56.5,224.7,62.3,231.8,62.3z"/>
		<path class="st2" d="M407.5,160.4c3.6,0,6.5-2.9,6.5-6.5c0-3.6-2.9-6.5-6.5-6.5c-3.6,0-6.5,2.9-6.5,6.5
			C401.1,157.5,404,160.4,407.5,160.4z"/>
		<path class="st2" d="M160.3,16.7c4.6,0,8.4-3.7,8.4-8.4c0-4.6-3.8-8.4-8.4-8.4s-8.4,3.7-8.4,8.4C151.9,13,155.6,16.7,160.3,16.7z"
			/>
		<path class="st2" d="M99.2,264.9c4.3,0,7.7-3.4,7.7-7.7c0-4.2-3.4-7.7-7.7-7.7c-4.3,0-7.7,3.4-7.7,7.7
			C91.6,261.5,95,264.9,99.2,264.9z"/>
		<path class="st2" d="M39.7,284.4c4.3,0,7.7-3.4,7.7-7.7s-3.4-7.7-7.7-7.7s-7.7,3.4-7.7,7.7S35.4,284.4,39.7,284.4z"/>
		<path class="st2" d="M155.7,106.4c5.5,0,10-4.5,10-10c0-5.5-4.5-10-10-10s-10,4.5-10,10C145.7,101.9,150.1,106.4,155.7,106.4z"/>
		<path class="st2" d="M56,128c5.5,0,10-4.5,10-10s-4.5-10-10-10s-10,4.5-10,10S50.5,128,56,128z"/>
	</g>
</g>
</svg>
