<svg id="Calque_1" data-name="Calque 1" xmlns="http://www.w3.org/2000/svg" xmlns:xlink="http://www.w3.org/1999/xlink" viewBox="0 0 33.59 41.92"><defs><style>.cls-1,.cls-4{fill:none;}.cls-2{clip-path:url(#clip-path);}.cls-3{fill:#fdfefe;}.cls-4{stroke:#fff;stroke-miterlimit:10;stroke-width:2px;}.cls-5{fill:#fff;}</style><clipPath id="clip-path" transform="translate(-12.82 0.03)"><rect class="cls-1" x="12.82" width="33.58" height="41.89"/></clipPath></defs><g class="cls-2"><path class="cls-3" d="M29.61,33.64A17.18,17.18,0,0,1,21,31.47a15.8,15.8,0,0,1-6-6,17.08,17.08,0,0,1-2.18-8.64A17.15,17.15,0,0,1,15,8.13a15.73,15.73,0,0,1,6-6A17.08,17.08,0,0,1,29.61,0a17,17,0,0,1,8.61,2.18,15.82,15.82,0,0,1,6,6,17.71,17.71,0,0,1,2.23,8.72,17,17,0,0,1-2.2,8.64,16.18,16.18,0,0,1-6,6A17,17,0,0,1,29.61,33.64Zm0-4.23a12.15,12.15,0,0,0,6.28-1.63,11.53,11.53,0,0,0,4.35-4.47,13.11,13.11,0,0,0,1.57-6.46,13.29,13.29,0,0,0-1.57-6.5,11.52,11.52,0,0,0-4.35-4.49,12.15,12.15,0,0,0-6.28-1.63,12.15,12.15,0,0,0-6.28,1.63A11.8,11.8,0,0,0,19,10.35a13.15,13.15,0,0,0-1.6,6.5A13,13,0,0,0,19,23.31a11.68,11.68,0,0,0,4.38,4.47A12.15,12.15,0,0,0,29.61,29.41Z" transform="translate(-12.82 0.03)"/><path class="cls-4" d="M17.63,41.3,22.3,21.83l12.2-9.51" transform="translate(-12.82 0.03)"/><path class="cls-5" d="M18,41.89a2.38,2.38,0,1,0-2.37-2.38A2.38,2.38,0,0,0,18,41.89Z" transform="translate(-12.82 0.03)"/><path class="cls-5" d="M22.5,25a2.77,2.77,0,1,0-2.77-2.77A2.77,2.77,0,0,0,22.5,25Z" transform="translate(-12.82 0.03)"/><path class="cls-5" d="M34.91,14.08a2.77,2.77,0,1,0-2.78-2.77A2.77,2.77,0,0,0,34.91,14.08Z" transform="translate(-12.82 0.03)"/></g></svg>