<?xml version="1.0" encoding="utf-8"?>
<!-- Generator: Adobe Illustrator 25.2.1, SVG Export Plug-In . SVG Version: 6.00 Build 0)  -->
<svg version="1.1" id="Capa_1" xmlns="http://www.w3.org/2000/svg" xmlns:xlink="http://www.w3.org/1999/xlink" x="0px" y="0px"
	 viewBox="0 0 512 512" style="enable-background:new 0 0 512 512;" xml:space="preserve">
<style type="text/css">
	.st0{fill:#F6D26B;}
	.st1{fill:#01011D;}
</style>
<g>
	<path class="st0" d="M420.4,0H91.6C41.1,0,0,41.1,0,91.6v328.8C0,470.9,41.1,512,91.6,512h328.8c50.5,0,91.6-41.1,91.6-91.6V91.6
		C512,41.1,470.9,0,420.4,0L420.4,0z M482,420.4c0,34-27.6,61.6-61.6,61.6H91.6c-34,0-61.6-27.6-61.6-61.6V91.6
		C30,57.6,57.6,30,91.6,30h328.8c34,0,61.6,27.6,61.6,61.6V420.4z"/>
	<path class="st0" d="M432.9,142.5c8.3,0,15-6.7,15-15s-6.9-15-15.2-15H79.3c-8.3,0-15,6.7-15,15s6.7,15,15,15H432.9z"/>
	<path class="st0" d="M432.9,271c8.3,0,15-6.7,15-15s-6.9-15-15.2-15H79.3c-8.3,0-15,6.7-15,15s6.7,15,15,15H432.9z"/>
	<path class="st0" d="M432.9,399.6c8.3,0,15-6.7,15-15c0-8.3-6.9-15-15.2-15H79.3c-8.3,0-15,6.7-15,15c0,8.3,6.7,15,15,15H432.9z"/>
	<g>
		<path class="st1" d="M159.6,159.3c-17.8,0-32.2-14.5-32.2-32.2s14.5-32.2,32.2-32.2s32.2,14.5,32.2,32.2S177.4,159.3,159.6,159.3z
			"/>
		<path class="st0" d="M159.6,109.4c9.8,0,17.7,8,17.7,17.7s-8,17.7-17.7,17.7s-17.7-8-17.7-17.7S149.8,109.4,159.6,109.4
			 M159.6,80.4c-25.8,0-46.7,20.9-46.7,46.7c0,25.8,20.9,46.7,46.7,46.7s46.7-20.9,46.7-46.7C206.3,101.3,185.4,80.4,159.6,80.4
			L159.6,80.4z"/>
	</g>
	<g>
		<path class="st1" d="M352.4,288.2c-17.8,0-32.2-14.5-32.2-32.2s14.5-32.2,32.2-32.2c17.8,0,32.2,14.5,32.2,32.2
			S370.2,288.2,352.4,288.2z"/>
		<path class="st0" d="M352.4,238.3c9.8,0,17.7,8,17.7,17.7c0,9.8-8,17.7-17.7,17.7s-17.7-8-17.7-17.7
			C334.7,246.2,342.6,238.3,352.4,238.3 M352.4,209.3c-25.8,0-46.7,20.9-46.7,46.7c0,25.8,20.9,46.7,46.7,46.7s46.7-20.9,46.7-46.7
			C399.1,230.2,378.2,209.3,352.4,209.3L352.4,209.3z"/>
	</g>
	<g>
		<path class="st1" d="M223.9,416.7c-17.8,0-32.2-14.5-32.2-32.2c0-17.8,14.5-32.2,32.2-32.2s32.2,14.5,32.2,32.2
			C256.1,402.3,241.7,416.7,223.9,416.7z"/>
		<path class="st0" d="M223.9,366.8c9.8,0,17.7,8,17.7,17.7c0,9.8-8,17.7-17.7,17.7s-17.7-8-17.7-17.7
			C206.2,374.7,214.1,366.8,223.9,366.8 M223.9,337.8c-25.8,0-46.7,20.9-46.7,46.7c0,25.8,20.9,46.7,46.7,46.7s46.7-20.9,46.7-46.7
			C270.6,358.7,249.7,337.8,223.9,337.8L223.9,337.8z"/>
	</g>
</g>
</svg>
