<?xml version="1.0" encoding="utf-8"?>
<!-- Generator: Adobe Illustrator 25.2.1, SVG Export Plug-In . SVG Version: 6.00 Build 0)  -->
<svg version="1.1" id="Calque_1" xmlns="http://www.w3.org/2000/svg" xmlns:xlink="http://www.w3.org/1999/xlink" x="0px" y="0px"
	 viewBox="0 0 3425.2 1578.2" style="enable-background:new 0 0 3425.2 1578.2;" xml:space="preserve">
<style type="text/css">
	.st0{fill:#FFFFFF;}
	.st1{opacity:0.2;}
</style>
<symbol  id="Nouveau_symbole" viewBox="-508.9 -340.4 1017.8 680.8">
	<circle class="st0" cx="-299.7" cy="326" r="14.4"/>
	<circle class="st0" cx="-16.9" cy="171.9" r="7.6"/>
	<circle class="st0" cx="-218.9" cy="62.2" r="5.5"/>
	<circle class="st0" cx="154.1" cy="-4.2" r="14.4"/>
	<circle class="st0" cx="266.7" cy="-331.9" r="8.5"/>
	<circle class="st0" cx="493.7" cy="-230.3" r="15.2"/>
	<circle class="st0" cx="-501.3" cy="-237.9" r="7.6"/>
	<circle class="st0" cx="-81.1" cy="-214.4" r="12.8"/>
	<circle class="st0" cx="429.5" cy="131.9" r="7"/>
</symbol>
<symbol  id="Nouveau_symbole_1" viewBox="-160.2 -107.2 320.4 214.3">
	<g>
		<defs>
			<rect id="SVGID_1_" x="-160.2" y="-107.2" width="320.4" height="214.3"/>
		</defs>
		<clipPath id="SVGID_2_">
			<use xlink:href="#SVGID_1_"  style="overflow:visible;"/>
		</clipPath>
		<g style="clip-path:url(#SVGID_2_);">
			
				<use xlink:href="#Nouveau_symbole"  width="1017.8" height="680.8" x="-508.9" y="-340.4" transform="matrix(0.3148 0 0 0.3148 0 0)" style="overflow:visible;"/>
		</g>
	</g>
</symbol>
<g class="st1">
	<g>
		<defs>
			<rect id="SVGID_3_" x="758.8" y="184.9" width="320.4" height="214.3"/>
		</defs>
		<clipPath id="SVGID_4_">
			<use xlink:href="#SVGID_3_"  style="overflow:visible;"/>
		</clipPath>
		<g style="clip-path:url(#SVGID_4_);">
			
				<use xlink:href="#Nouveau_symbole_1"  width="320.4" height="214.3" x="-160.2" y="-107.2" transform="matrix(1 0 0 -1 918.0391 293.0515)" style="overflow:visible;"/>
		</g>
	</g>
	<g>
		<defs>
			<rect id="SVGID_5_" x="1241.5" y="172.8" width="320.4" height="214.3"/>
		</defs>
		<clipPath id="SVGID_6_">
			<use xlink:href="#SVGID_5_"  style="overflow:visible;"/>
		</clipPath>
		<g style="clip-path:url(#SVGID_6_);">
			
				<use xlink:href="#Nouveau_symbole_1"  width="320.4" height="214.3" x="-160.2" y="-107.2" transform="matrix(1 0 0 -1 1400.6772 281.0133)" style="overflow:visible;"/>
		</g>
	</g>
	<g>
		<defs>
			<rect id="SVGID_7_" x="1889.7" y="383.3" width="320.4" height="214.3"/>
		</defs>
		<clipPath id="SVGID_8_">
			<use xlink:href="#SVGID_7_"  style="overflow:visible;"/>
		</clipPath>
		<g style="clip-path:url(#SVGID_8_);">
			
				<use xlink:href="#Nouveau_symbole_1"  width="320.4" height="214.3" x="-160.2" y="-107.2" transform="matrix(1 0 0 -1 2048.8833 491.4891)" style="overflow:visible;"/>
		</g>
	</g>
	<g>
		<defs>
			<rect id="SVGID_9_" x="2036.7" y="437.1" width="320.4" height="214.3"/>
		</defs>
		<clipPath id="SVGID_10_">
			<use xlink:href="#SVGID_9_"  style="overflow:visible;"/>
		</clipPath>
		<g style="clip-path:url(#SVGID_10_);">
			
				<use xlink:href="#Nouveau_symbole_1"  width="320.4" height="214.3" x="-160.2" y="-107.2" transform="matrix(1 0 0 -1 2195.8975 545.2759)" style="overflow:visible;"/>
		</g>
	</g>
	<g>
		<defs>
			<rect id="SVGID_11_" x="722.3" y="446.2" width="320.4" height="214.3"/>
		</defs>
		<clipPath id="SVGID_12_">
			<use xlink:href="#SVGID_11_"  style="overflow:visible;"/>
		</clipPath>
		<g style="clip-path:url(#SVGID_12_);">
			
				<use xlink:href="#Nouveau_symbole_1"  width="320.4" height="214.3" x="-160.2" y="-107.2" transform="matrix(1 0 0 -1 881.5186 554.3769)" style="overflow:visible;"/>
		</g>
	</g>
	<g>
		<defs>
			<rect id="SVGID_13_" x="1036.3" y="450.6" width="320.4" height="214.3"/>
		</defs>
		<clipPath id="SVGID_14_">
			<use xlink:href="#SVGID_13_"  style="overflow:visible;"/>
		</clipPath>
		<g style="clip-path:url(#SVGID_14_);">
			
				<use xlink:href="#Nouveau_symbole_1"  width="320.4" height="214.3" x="-160.2" y="-107.2" transform="matrix(1 0 0 -1 1195.4615 558.8282)" style="overflow:visible;"/>
		</g>
	</g>
	<g>
		<defs>
			<rect id="SVGID_15_" x="1512.1" y="445.6" width="320.4" height="214.3"/>
		</defs>
		<clipPath id="SVGID_16_">
			<use xlink:href="#SVGID_15_"  style="overflow:visible;"/>
		</clipPath>
		<g style="clip-path:url(#SVGID_16_);">
			
				<use xlink:href="#Nouveau_symbole_1"  width="320.4" height="214.3" x="-160.2" y="-107.2" transform="matrix(1 0 0 -1 1671.2906 553.7627)" style="overflow:visible;"/>
		</g>
	</g>
	<g>
		<defs>
			<rect id="SVGID_17_" x="1814.2" y="454.3" width="320.4" height="214.3"/>
		</defs>
		<clipPath id="SVGID_18_">
			<use xlink:href="#SVGID_17_"  style="overflow:visible;"/>
		</clipPath>
		<g style="clip-path:url(#SVGID_18_);">
			
				<use xlink:href="#Nouveau_symbole_1"  width="320.4" height="214.3" x="-160.2" y="-107.2" transform="matrix(1 0 0 -1 1973.361 562.5464)" style="overflow:visible;"/>
		</g>
	</g>
	<g>
		<defs>
			<rect id="SVGID_19_" x="2184.5" y="434.4" width="320.4" height="214.3"/>
		</defs>
		<clipPath id="SVGID_20_">
			<use xlink:href="#SVGID_19_"  style="overflow:visible;"/>
		</clipPath>
		<g style="clip-path:url(#SVGID_20_);">
			
				<use xlink:href="#Nouveau_symbole_1"  width="320.4" height="214.3" x="-160.2" y="-107.2" transform="matrix(1 0 0 -1 2343.6587 542.5811)" style="overflow:visible;"/>
		</g>
	</g>
	<g>
		<defs>
			<rect id="SVGID_21_" x="2456.1" y="434.5" width="320.4" height="214.3"/>
		</defs>
		<clipPath id="SVGID_22_">
			<use xlink:href="#SVGID_21_"  style="overflow:visible;"/>
		</clipPath>
		<g style="clip-path:url(#SVGID_22_);">
			
				<use xlink:href="#Nouveau_symbole_1"  width="320.4" height="214.3" x="-160.2" y="-107.2" transform="matrix(1 0 0 -1 2615.2935 542.7293)" style="overflow:visible;"/>
		</g>
	</g>
	<g>
		<defs>
			<rect id="SVGID_23_" x="2955.3" y="429" width="320.4" height="214.3"/>
		</defs>
		<clipPath id="SVGID_24_">
			<use xlink:href="#SVGID_23_"  style="overflow:visible;"/>
		</clipPath>
		<g style="clip-path:url(#SVGID_24_);">
			
				<use xlink:href="#Nouveau_symbole_1"  width="320.4" height="214.3" x="-160.2" y="-107.2" transform="matrix(1 0 0 -1 3114.5259 537.1801)" style="overflow:visible;"/>
		</g>
	</g>
	<g>
		<defs>
			<rect id="SVGID_25_" x="3169.4" y="357.2" width="320.4" height="214.3"/>
		</defs>
		<clipPath id="SVGID_26_">
			<use xlink:href="#SVGID_25_"  style="overflow:visible;"/>
		</clipPath>
		<g style="clip-path:url(#SVGID_26_);">
			
				<use xlink:href="#Nouveau_symbole_1"  width="320.4" height="214.3" x="-160.2" y="-107.2" transform="matrix(1 0 0 -1 3328.627 465.3902)" style="overflow:visible;"/>
		</g>
	</g>
	<g>
		<defs>
			<rect id="SVGID_27_" x="3173.5" y="208.5" width="320.4" height="214.3"/>
		</defs>
		<clipPath id="SVGID_28_">
			<use xlink:href="#SVGID_27_"  style="overflow:visible;"/>
		</clipPath>
		<g style="clip-path:url(#SVGID_28_);">
			
				<use xlink:href="#Nouveau_symbole_1"  width="320.4" height="214.3" x="-160.2" y="-107.2" transform="matrix(1 0 0 -1 3332.7349 316.7475)" style="overflow:visible;"/>
		</g>
	</g>
	<g>
		<defs>
			<rect id="SVGID_29_" x="2671.2" y="127.4" width="320.4" height="214.3"/>
		</defs>
		<clipPath id="SVGID_30_">
			<use xlink:href="#SVGID_29_"  style="overflow:visible;"/>
		</clipPath>
		<g style="clip-path:url(#SVGID_30_);">
			
				<use xlink:href="#Nouveau_symbole_1"  width="320.4" height="214.3" x="-160.2" y="-107.2" transform="matrix(1 0 0 -1 2830.4458 235.5893)" style="overflow:visible;"/>
		</g>
	</g>
	<g>
		<defs>
			<rect id="SVGID_31_" x="2184.1" y="118.2" width="320.4" height="214.3"/>
		</defs>
		<clipPath id="SVGID_32_">
			<use xlink:href="#SVGID_31_"  style="overflow:visible;"/>
		</clipPath>
		<g style="clip-path:url(#SVGID_32_);">
			
				<use xlink:href="#Nouveau_symbole_1"  width="320.4" height="214.3" x="-160.2" y="-107.2" transform="matrix(1 0 0 -1 2343.3149 226.362)" style="overflow:visible;"/>
		</g>
	</g>
	<g>
		<defs>
			<rect id="SVGID_33_" x="1792.6" y="101.9" width="320.4" height="214.3"/>
		</defs>
		<clipPath id="SVGID_34_">
			<use xlink:href="#SVGID_33_"  style="overflow:visible;"/>
		</clipPath>
		<g style="clip-path:url(#SVGID_34_);">
			
				<use xlink:href="#Nouveau_symbole_1"  width="320.4" height="214.3" x="-160.2" y="-107.2" transform="matrix(1 0 0 -1 1951.793 210.0653)" style="overflow:visible;"/>
		</g>
	</g>
	<g>
		<defs>
			<rect id="SVGID_35_" x="1352.6" y="113.1" width="320.4" height="214.3"/>
		</defs>
		<clipPath id="SVGID_36_">
			<use xlink:href="#SVGID_35_"  style="overflow:visible;"/>
		</clipPath>
		<g style="clip-path:url(#SVGID_36_);">
			
				<use xlink:href="#Nouveau_symbole_1"  width="320.4" height="214.3" x="-160.2" y="-107.2" transform="matrix(1 0 0 -1 1511.8022 221.3454)" style="overflow:visible;"/>
		</g>
	</g>
	<g>
		<defs>
			<rect id="SVGID_37_" x="868.1" y="108.8" width="320.4" height="214.3"/>
		</defs>
		<clipPath id="SVGID_38_">
			<use xlink:href="#SVGID_37_"  style="overflow:visible;"/>
		</clipPath>
		<g style="clip-path:url(#SVGID_38_);">
			
				<use xlink:href="#Nouveau_symbole_1"  width="320.4" height="214.3" x="-160.2" y="-107.2" transform="matrix(1 0 0 -1 1027.2501 217.0251)" style="overflow:visible;"/>
		</g>
	</g>
	<g>
		<defs>
			<rect id="SVGID_39_" x="432.6" y="59.7" width="320.4" height="214.3"/>
		</defs>
		<clipPath id="SVGID_40_">
			<use xlink:href="#SVGID_39_"  style="overflow:visible;"/>
		</clipPath>
		<g style="clip-path:url(#SVGID_40_);">
			
				<use xlink:href="#Nouveau_symbole_1"  width="320.4" height="214.3" x="-160.2" y="-107.2" transform="matrix(1 0 0 -1 591.7619 167.9113)" style="overflow:visible;"/>
		</g>
	</g>
	<g>
		<defs>
			<rect id="SVGID_41_" x="129.3" y="36.9" width="320.4" height="214.3"/>
		</defs>
		<clipPath id="SVGID_42_">
			<use xlink:href="#SVGID_41_"  style="overflow:visible;"/>
		</clipPath>
		<g style="clip-path:url(#SVGID_42_);">
			
				<use xlink:href="#Nouveau_symbole_1"  width="320.4" height="214.3" x="-160.2" y="-107.2" transform="matrix(1 0 0 -1 288.5175 145.0704)" style="overflow:visible;"/>
		</g>
	</g>
	<g>
		<defs>
			<rect id="SVGID_43_" x="-85.2" y="29.9" width="320.4" height="214.3"/>
		</defs>
		<clipPath id="SVGID_44_">
			<use xlink:href="#SVGID_43_"  style="overflow:visible;"/>
		</clipPath>
		<g style="clip-path:url(#SVGID_44_);">
			
				<use xlink:href="#Nouveau_symbole_1"  width="320.4" height="214.3" x="-160.2" y="-107.2" transform="matrix(1 0 0 -1 74.0041 138.1241)" style="overflow:visible;"/>
		</g>
	</g>
	<g>
		<defs>
			<rect id="SVGID_45_" x="18.4" y="-16.4" width="320.4" height="214.3"/>
		</defs>
		<clipPath id="SVGID_46_">
			<use xlink:href="#SVGID_45_"  style="overflow:visible;"/>
		</clipPath>
		<g style="clip-path:url(#SVGID_46_);">
			
				<use xlink:href="#Nouveau_symbole_1"  width="320.4" height="214.3" x="-160.2" y="-107.2" transform="matrix(1 0 0 -1 177.5977 91.8132)" style="overflow:visible;"/>
		</g>
	</g>
	<g>
		<defs>
			<rect id="SVGID_47_" x="1197.6" y="-45.4" width="320.4" height="214.3"/>
		</defs>
		<clipPath id="SVGID_48_">
			<use xlink:href="#SVGID_47_"  style="overflow:visible;"/>
		</clipPath>
		<g style="clip-path:url(#SVGID_48_);">
			
				<use xlink:href="#Nouveau_symbole_1"  width="320.4" height="214.3" x="-160.2" y="-107.2" transform="matrix(1 0 0 -1 1356.7584 62.7577)" style="overflow:visible;"/>
		</g>
	</g>
	<g>
		<defs>
			<rect id="SVGID_49_" x="2273.3" y="-36.9" width="320.4" height="214.3"/>
		</defs>
		<clipPath id="SVGID_50_">
			<use xlink:href="#SVGID_49_"  style="overflow:visible;"/>
		</clipPath>
		<g style="clip-path:url(#SVGID_50_);">
			
				<use xlink:href="#Nouveau_symbole_1"  width="320.4" height="214.3" x="-160.2" y="-107.2" transform="matrix(1 0 0 -1 2432.5227 71.292)" style="overflow:visible;"/>
		</g>
	</g>
	<g>
		<defs>
			<rect id="SVGID_51_" x="3003.7" y="-28.3" width="320.4" height="214.3"/>
		</defs>
		<clipPath id="SVGID_52_">
			<use xlink:href="#SVGID_51_"  style="overflow:visible;"/>
		</clipPath>
		<g style="clip-path:url(#SVGID_52_);">
			
				<use xlink:href="#Nouveau_symbole_1"  width="320.4" height="214.3" x="-160.2" y="-107.2" transform="matrix(1 0 0 -1 3162.8706 79.856)" style="overflow:visible;"/>
		</g>
	</g>
	<g>
		<defs>
			<rect id="SVGID_53_" x="3283.7" y="14.3" width="320.4" height="214.3"/>
		</defs>
		<clipPath id="SVGID_54_">
			<use xlink:href="#SVGID_53_"  style="overflow:visible;"/>
		</clipPath>
		<g style="clip-path:url(#SVGID_54_);">
			
				<use xlink:href="#Nouveau_symbole_1"  width="320.4" height="214.3" x="-160.2" y="-107.2" transform="matrix(1 0 0 -1 3442.9277 122.5195)" style="overflow:visible;"/>
		</g>
	</g>
	<g>
		<defs>
			<rect id="SVGID_55_" x="2773.3" y="97.3" width="320.4" height="214.3"/>
		</defs>
		<clipPath id="SVGID_56_">
			<use xlink:href="#SVGID_55_"  style="overflow:visible;"/>
		</clipPath>
		<g style="clip-path:url(#SVGID_56_);">
			
				<use xlink:href="#Nouveau_symbole_1"  width="320.4" height="214.3" x="-160.2" y="-107.2" transform="matrix(1 0 0 -1 2932.4543 205.4966)" style="overflow:visible;"/>
		</g>
	</g>
	<g>
		<defs>
			<rect id="SVGID_57_" x="1496" y="133.2" width="320.4" height="214.3"/>
		</defs>
		<clipPath id="SVGID_58_">
			<use xlink:href="#SVGID_57_"  style="overflow:visible;"/>
		</clipPath>
		<g style="clip-path:url(#SVGID_58_);">
			
				<use xlink:href="#Nouveau_symbole_1"  width="320.4" height="214.3" x="-160.2" y="-107.2" transform="matrix(1 0 0 -1 1655.2109 241.425)" style="overflow:visible;"/>
		</g>
	</g>
	<g>
		<defs>
			<rect id="SVGID_59_" x="694.9" y="220.7" width="320.4" height="214.3"/>
		</defs>
		<clipPath id="SVGID_60_">
			<use xlink:href="#SVGID_59_"  style="overflow:visible;"/>
		</clipPath>
		<g style="clip-path:url(#SVGID_60_);">
			
				<use xlink:href="#Nouveau_symbole_1"  width="320.4" height="214.3" x="-160.2" y="-107.2" transform="matrix(1 0 0 -1 854.0519 328.863)" style="overflow:visible;"/>
		</g>
	</g>
	<g>
		<defs>
			<rect id="SVGID_61_" x="129.6" y="300" width="320.4" height="214.3"/>
		</defs>
		<clipPath id="SVGID_62_">
			<use xlink:href="#SVGID_61_"  style="overflow:visible;"/>
		</clipPath>
		<g style="clip-path:url(#SVGID_62_);">
			
				<use xlink:href="#Nouveau_symbole_1"  width="320.4" height="214.3" x="-160.2" y="-107.2" transform="matrix(1 0 0 -1 288.7787 408.1881)" style="overflow:visible;"/>
		</g>
	</g>
	<g>
		<defs>
			<rect id="SVGID_63_" x="-80.4" y="391" width="320.4" height="214.3"/>
		</defs>
		<clipPath id="SVGID_64_">
			<use xlink:href="#SVGID_63_"  style="overflow:visible;"/>
		</clipPath>
		<g style="clip-path:url(#SVGID_64_);">
			
				<use xlink:href="#Nouveau_symbole_1"  width="320.4" height="214.3" x="-160.2" y="-107.2" transform="matrix(1 0 0 -1 78.7809 499.1549)" style="overflow:visible;"/>
		</g>
	</g>
	<g>
		<defs>
			<rect id="SVGID_65_" x="675.4" y="568.6" width="320.4" height="214.3"/>
		</defs>
		<clipPath id="SVGID_66_">
			<use xlink:href="#SVGID_65_"  style="overflow:visible;"/>
		</clipPath>
		<g style="clip-path:url(#SVGID_66_);">
			
				<use xlink:href="#Nouveau_symbole_1"  width="320.4" height="214.3" x="-160.2" y="-107.2" transform="matrix(1 0 0 -1 834.6193 676.7567)" style="overflow:visible;"/>
		</g>
	</g>
	<g>
		<defs>
			<rect id="SVGID_67_" x="2191.5" y="709.9" width="320.4" height="214.3"/>
		</defs>
		<clipPath id="SVGID_68_">
			<use xlink:href="#SVGID_67_"  style="overflow:visible;"/>
		</clipPath>
		<g style="clip-path:url(#SVGID_68_);">
			
				<use xlink:href="#Nouveau_symbole_1"  width="320.4" height="214.3" x="-160.2" y="-107.2" transform="matrix(1 0 0 -1 2350.7151 818.0935)" style="overflow:visible;"/>
		</g>
	</g>
	<g>
		<defs>
			<rect id="SVGID_69_" x="3232.9" y="739.7" width="320.4" height="214.3"/>
		</defs>
		<clipPath id="SVGID_70_">
			<use xlink:href="#SVGID_69_"  style="overflow:visible;"/>
		</clipPath>
		<g style="clip-path:url(#SVGID_70_);">
			
				<use xlink:href="#Nouveau_symbole_1"  width="320.4" height="214.3" x="-160.2" y="-107.2" transform="matrix(1 0 0 -1 3392.113 847.8671)" style="overflow:visible;"/>
		</g>
	</g>
	<g>
		<defs>
			<rect id="SVGID_71_" x="3756" y="792.3" width="320.4" height="214.3"/>
		</defs>
		<clipPath id="SVGID_72_">
			<use xlink:href="#SVGID_71_"  style="overflow:visible;"/>
		</clipPath>
		<g style="clip-path:url(#SVGID_72_);">
			
				<use xlink:href="#Nouveau_symbole_1"  width="320.4" height="214.3" x="-160.2" y="-107.2" transform="matrix(1 0 0 -1 3915.2024 900.4604)" style="overflow:visible;"/>
		</g>
	</g>
	<g>
		<defs>
			<rect id="SVGID_73_" x="3430.8" y="798.4" width="320.4" height="214.3"/>
		</defs>
		<clipPath id="SVGID_74_">
			<use xlink:href="#SVGID_73_"  style="overflow:visible;"/>
		</clipPath>
		<g style="clip-path:url(#SVGID_74_);">
			
				<use xlink:href="#Nouveau_symbole_1"  width="320.4" height="214.3" x="-160.2" y="-107.2" transform="matrix(1 0 0 -1 3589.9539 906.608)" style="overflow:visible;"/>
		</g>
	</g>
	<g>
		<defs>
			<rect id="SVGID_75_" x="2103.7" y="817.2" width="320.4" height="214.3"/>
		</defs>
		<clipPath id="SVGID_76_">
			<use xlink:href="#SVGID_75_"  style="overflow:visible;"/>
		</clipPath>
		<g style="clip-path:url(#SVGID_76_);">
			
				<use xlink:href="#Nouveau_symbole_1"  width="320.4" height="214.3" x="-160.2" y="-107.2" transform="matrix(1 0 0 -1 2262.9248 925.3526)" style="overflow:visible;"/>
		</g>
	</g>
	<g>
		<defs>
			<rect id="SVGID_77_" x="1331.8" y="800.9" width="320.4" height="214.3"/>
		</defs>
		<clipPath id="SVGID_78_">
			<use xlink:href="#SVGID_77_"  style="overflow:visible;"/>
		</clipPath>
		<g style="clip-path:url(#SVGID_78_);">
			
				<use xlink:href="#Nouveau_symbole_1"  width="320.4" height="214.3" x="-160.2" y="-107.2" transform="matrix(1 0 0 -1 1490.9849 909.1434)" style="overflow:visible;"/>
		</g>
	</g>
	<g>
		<defs>
			<rect id="SVGID_79_" x="498.9" y="807.3" width="320.4" height="214.3"/>
		</defs>
		<clipPath id="SVGID_80_">
			<use xlink:href="#SVGID_79_"  style="overflow:visible;"/>
		</clipPath>
		<g style="clip-path:url(#SVGID_80_);">
			
				<use xlink:href="#Nouveau_symbole_1"  width="320.4" height="214.3" x="-160.2" y="-107.2" transform="matrix(1 0 0 -1 658.1229 915.4823)" style="overflow:visible;"/>
		</g>
	</g>
	<g>
		<defs>
			<rect id="SVGID_81_" x="-253.4" y="799.1" width="320.4" height="214.3"/>
		</defs>
		<clipPath id="SVGID_82_">
			<use xlink:href="#SVGID_81_"  style="overflow:visible;"/>
		</clipPath>
		<g style="clip-path:url(#SVGID_82_);">
			
				<use xlink:href="#Nouveau_symbole_1"  width="320.4" height="214.3" x="-160.2" y="-107.2" transform="matrix(1 0 0 -1 -94.2032 907.3281)" style="overflow:visible;"/>
		</g>
	</g>
	<g>
		<defs>
			<rect id="SVGID_83_" x="-38.3" y="809" width="320.4" height="214.3"/>
		</defs>
		<clipPath id="SVGID_84_">
			<use xlink:href="#SVGID_83_"  style="overflow:visible;"/>
		</clipPath>
		<g style="clip-path:url(#SVGID_84_);">
			
				<use xlink:href="#Nouveau_symbole_1"  width="320.4" height="214.3" x="-160.2" y="-107.2" transform="matrix(1 0 0 -1 120.8857 917.2274)" style="overflow:visible;"/>
		</g>
	</g>
	<g>
		<defs>
			<rect id="SVGID_85_" x="2030.1" y="808.3" width="320.4" height="214.3"/>
		</defs>
		<clipPath id="SVGID_86_">
			<use xlink:href="#SVGID_85_"  style="overflow:visible;"/>
		</clipPath>
		<g style="clip-path:url(#SVGID_86_);">
			
				<use xlink:href="#Nouveau_symbole_1"  width="320.4" height="214.3" x="-160.2" y="-107.2" transform="matrix(1 0 0 -1 2189.2739 916.476)" style="overflow:visible;"/>
		</g>
	</g>
	<g>
		<defs>
			<rect id="SVGID_87_" x="2949" y="767.5" width="320.4" height="214.3"/>
		</defs>
		<clipPath id="SVGID_88_">
			<use xlink:href="#SVGID_87_"  style="overflow:visible;"/>
		</clipPath>
		<g style="clip-path:url(#SVGID_88_);">
			
				<use xlink:href="#Nouveau_symbole_1"  width="320.4" height="214.3" x="-160.2" y="-107.2" transform="matrix(1 0 0 -1 3108.2498 875.7266)" style="overflow:visible;"/>
		</g>
	</g>
	<g>
		<defs>
			<rect id="SVGID_89_" x="-349.4" y="811.7" width="320.4" height="214.3"/>
		</defs>
		<clipPath id="SVGID_90_">
			<use xlink:href="#SVGID_89_"  style="overflow:visible;"/>
		</clipPath>
		<g style="clip-path:url(#SVGID_90_);">
			
				<use xlink:href="#Nouveau_symbole_1"  width="320.4" height="214.3" x="-160.2" y="-107.2" transform="matrix(1 0 0 -1 -190.1612 919.9125)" style="overflow:visible;"/>
		</g>
	</g>
	<g>
		<defs>
			<rect id="SVGID_91_" x="2348.7" y="1283.3" width="320.4" height="214.3"/>
		</defs>
		<clipPath id="SVGID_92_">
			<use xlink:href="#SVGID_91_"  style="overflow:visible;"/>
		</clipPath>
		<g style="clip-path:url(#SVGID_92_);">
			
				<use xlink:href="#Nouveau_symbole_1"  width="320.4" height="214.3" x="-160.2" y="-107.2" transform="matrix(1 0 0 -1 2507.873 1391.5272)" style="overflow:visible;"/>
		</g>
	</g>
	<g>
		<defs>
			<rect id="SVGID_93_" x="1065.4" y="178.2" width="320.4" height="214.3"/>
		</defs>
		<clipPath id="SVGID_94_">
			<use xlink:href="#SVGID_93_"  style="overflow:visible;"/>
		</clipPath>
		<g style="clip-path:url(#SVGID_94_);">
			
				<use xlink:href="#Nouveau_symbole_1"  width="320.4" height="214.3" x="-160.2" y="-107.2" transform="matrix(1 0 0 -1 1224.6226 286.3719)" style="overflow:visible;"/>
		</g>
	</g>
	<g>
		<defs>
			<rect id="SVGID_95_" x="3485.8" y="1108.1" width="320.4" height="214.3"/>
		</defs>
		<clipPath id="SVGID_96_">
			<use xlink:href="#SVGID_95_"  style="overflow:visible;"/>
		</clipPath>
		<g style="clip-path:url(#SVGID_96_);">
			
				<use xlink:href="#Nouveau_symbole_1"  width="320.4" height="214.3" x="-160.2" y="-107.2" transform="matrix(1 0 0 -1 3644.9995 1216.2706)" style="overflow:visible;"/>
		</g>
	</g>
	<g>
		<defs>
			<rect id="SVGID_97_" x="157.7" y="798.1" width="320.4" height="214.3"/>
		</defs>
		<clipPath id="SVGID_98_">
			<use xlink:href="#SVGID_97_"  style="overflow:visible;"/>
		</clipPath>
		<g style="clip-path:url(#SVGID_98_);">
			
				<use xlink:href="#Nouveau_symbole_1"  width="320.4" height="214.3" x="-160.2" y="-107.2" transform="matrix(1 0 0 -1 316.8894 906.2654)" style="overflow:visible;"/>
		</g>
	</g>
	<g>
		<defs>
			<rect id="SVGID_99_" x="3071.5" y="749.8" width="320.4" height="214.3"/>
		</defs>
		<clipPath id="SVGID_100_">
			<use xlink:href="#SVGID_99_"  style="overflow:visible;"/>
		</clipPath>
		<g style="clip-path:url(#SVGID_100_);">
			
				<use xlink:href="#Nouveau_symbole_1"  width="320.4" height="214.3" x="-160.2" y="-107.2" transform="matrix(1 0 0 -1 3230.7388 857.9587)" style="overflow:visible;"/>
		</g>
	</g>
	<g>
		<defs>
			<rect id="SVGID_101_" x="3180.7" y="1092.2" width="320.4" height="214.3"/>
		</defs>
		<clipPath id="SVGID_102_">
			<use xlink:href="#SVGID_101_"  style="overflow:visible;"/>
		</clipPath>
		<g style="clip-path:url(#SVGID_102_);">
			
				<use xlink:href="#Nouveau_symbole_1"  width="320.4" height="214.3" x="-160.2" y="-107.2" transform="matrix(1 0 0 -1 3339.9316 1200.3545)" style="overflow:visible;"/>
		</g>
	</g>
	<g>
		<defs>
			<rect id="SVGID_103_" x="1604.8" y="1513" width="320.4" height="214.3"/>
		</defs>
		<clipPath id="SVGID_104_">
			<use xlink:href="#SVGID_103_"  style="overflow:visible;"/>
		</clipPath>
		<g style="clip-path:url(#SVGID_104_);">
			
				<use xlink:href="#Nouveau_symbole_1"  width="320.4" height="214.3" x="-160.2" y="-107.2" transform="matrix(1 0 0 -1 1764.0353 1621.1842)" style="overflow:visible;"/>
		</g>
	</g>
	<g>
		<defs>
			<rect id="SVGID_105_" x="51.1" y="1179.4" width="320.4" height="214.3"/>
		</defs>
		<clipPath id="SVGID_106_">
			<use xlink:href="#SVGID_105_"  style="overflow:visible;"/>
		</clipPath>
		<g style="clip-path:url(#SVGID_106_);">
			
				<use xlink:href="#Nouveau_symbole_1"  width="320.4" height="214.3" x="-160.2" y="-107.2" transform="matrix(1 0 0 -1 210.2747 1287.5684)" style="overflow:visible;"/>
		</g>
	</g>
	<g>
		<defs>
			<rect id="SVGID_107_" x="1570.2" y="1326.9" width="320.4" height="214.3"/>
		</defs>
		<clipPath id="SVGID_108_">
			<use xlink:href="#SVGID_107_"  style="overflow:visible;"/>
		</clipPath>
		<g style="clip-path:url(#SVGID_108_);">
			
				<use xlink:href="#Nouveau_symbole_1"  width="320.4" height="214.3" x="-160.2" y="-107.2" transform="matrix(1 0 0 -1 1729.4385 1435.1415)" style="overflow:visible;"/>
		</g>
	</g>
	<g>
		<defs>
			<rect id="SVGID_109_" x="685.4" y="1570.5" width="320.4" height="214.3"/>
		</defs>
		<clipPath id="SVGID_110_">
			<use xlink:href="#SVGID_109_"  style="overflow:visible;"/>
		</clipPath>
		<g style="clip-path:url(#SVGID_110_);">
			
				<use xlink:href="#Nouveau_symbole_1"  width="320.4" height="214.3" x="-160.2" y="-107.2" transform="matrix(1 0 0 -1 844.5714 1678.703)" style="overflow:visible;"/>
		</g>
	</g>
	<g>
		<defs>
			<rect id="SVGID_111_" x="-1" y="1124.7" width="320.4" height="214.3"/>
		</defs>
		<clipPath id="SVGID_112_">
			<use xlink:href="#SVGID_111_"  style="overflow:visible;"/>
		</clipPath>
		<g style="clip-path:url(#SVGID_112_);">
			
				<use xlink:href="#Nouveau_symbole_1"  width="320.4" height="214.3" x="-160.2" y="-107.2" transform="matrix(1 0 0 -1 158.2316 1232.915)" style="overflow:visible;"/>
		</g>
	</g>
	<g>
		<defs>
			<rect id="SVGID_113_" x="1932.7" y="1048.6" width="320.4" height="214.3"/>
		</defs>
		<clipPath id="SVGID_114_">
			<use xlink:href="#SVGID_113_"  style="overflow:visible;"/>
		</clipPath>
		<g style="clip-path:url(#SVGID_114_);">
			
				<use xlink:href="#Nouveau_symbole_1"  width="320.4" height="214.3" x="-160.2" y="-107.2" transform="matrix(1 0 0 -1 2091.8862 1156.8275)" style="overflow:visible;"/>
		</g>
	</g>
	<g>
		<defs>
			<rect id="SVGID_115_" x="1512.8" y="1015.8" width="320.4" height="214.3"/>
		</defs>
		<clipPath id="SVGID_116_">
			<use xlink:href="#SVGID_115_"  style="overflow:visible;"/>
		</clipPath>
		<g style="clip-path:url(#SVGID_116_);">
			
				<use xlink:href="#Nouveau_symbole_1"  width="320.4" height="214.3" x="-160.2" y="-107.2" transform="matrix(1 0 0 -1 1671.9948 1123.9773)" style="overflow:visible;"/>
		</g>
	</g>
	<g>
		<defs>
			<rect id="SVGID_117_" x="33.1" y="739.6" width="320.4" height="214.3"/>
		</defs>
		<clipPath id="SVGID_118_">
			<use xlink:href="#SVGID_117_"  style="overflow:visible;"/>
		</clipPath>
		<g style="clip-path:url(#SVGID_118_);">
			
				<use xlink:href="#Nouveau_symbole_1"  width="320.4" height="214.3" x="-160.2" y="-107.2" transform="matrix(1 0 0 -1 192.2577 847.7694)" style="overflow:visible;"/>
		</g>
	</g>
	<g>
		<defs>
			<rect id="SVGID_119_" x="3310.4" y="569.1" width="320.4" height="214.3"/>
		</defs>
		<clipPath id="SVGID_120_">
			<use xlink:href="#SVGID_119_"  style="overflow:visible;"/>
		</clipPath>
		<g style="clip-path:url(#SVGID_120_);">
			
				<use xlink:href="#Nouveau_symbole_1"  width="320.4" height="214.3" x="-160.2" y="-107.2" transform="matrix(1 0 0 -1 3469.562 677.3453)" style="overflow:visible;"/>
		</g>
	</g>
	<g>
		<defs>
			<rect id="SVGID_121_" x="724" y="1062.2" width="320.4" height="214.3"/>
		</defs>
		<clipPath id="SVGID_122_">
			<use xlink:href="#SVGID_121_"  style="overflow:visible;"/>
		</clipPath>
		<g style="clip-path:url(#SVGID_122_);">
			
				<use xlink:href="#Nouveau_symbole_1"  width="320.4" height="214.3" x="-160.2" y="-107.2" transform="matrix(1 0 0 -1 883.1792 1170.3738)" style="overflow:visible;"/>
		</g>
	</g>
	<g>
		<defs>
			<rect id="SVGID_123_" x="361.6" y="1326.6" width="320.4" height="214.3"/>
		</defs>
		<clipPath id="SVGID_124_">
			<use xlink:href="#SVGID_123_"  style="overflow:visible;"/>
		</clipPath>
		<g style="clip-path:url(#SVGID_124_);">
			
				<use xlink:href="#Nouveau_symbole_1"  width="320.4" height="214.3" x="-160.2" y="-107.2" transform="matrix(1 0 0 -1 520.8423 1434.8265)" style="overflow:visible;"/>
		</g>
	</g>
	<g>
		<defs>
			<rect id="SVGID_125_" x="1228.7" y="999.9" width="320.4" height="214.3"/>
		</defs>
		<clipPath id="SVGID_126_">
			<use xlink:href="#SVGID_125_"  style="overflow:visible;"/>
		</clipPath>
		<g style="clip-path:url(#SVGID_126_);">
			
				<use xlink:href="#Nouveau_symbole_1"  width="320.4" height="214.3" x="-160.2" y="-107.2" transform="matrix(1 0 0 -1 1387.8698 1108.0865)" style="overflow:visible;"/>
		</g>
	</g>
	<g>
		<defs>
			<rect id="SVGID_127_" x="-134.5" y="243" width="320.4" height="214.3"/>
		</defs>
		<clipPath id="SVGID_128_">
			<use xlink:href="#SVGID_127_"  style="overflow:visible;"/>
		</clipPath>
		<g style="clip-path:url(#SVGID_128_);">
			
				<use xlink:href="#Nouveau_symbole_1"  width="320.4" height="214.3" x="-160.2" y="-107.2" transform="matrix(1 0 0 -1 24.7291 351.1826)" style="overflow:visible;"/>
		</g>
	</g>
	<g>
		<defs>
			<rect id="SVGID_129_" x="-62" y="-327.5" width="320.4" height="214.3"/>
		</defs>
		<clipPath id="SVGID_130_">
			<use xlink:href="#SVGID_129_"  style="overflow:visible;"/>
		</clipPath>
		<g style="clip-path:url(#SVGID_130_);">
			
				<use xlink:href="#Nouveau_symbole_1"  width="320.4" height="214.3" x="-160.2" y="-107.2" transform="matrix(1 0 0 -1 97.1962 -219.2771)" style="overflow:visible;"/>
		</g>
	</g>
	<g>
		<defs>
			<rect id="SVGID_131_" x="1193" y="1388.8" width="320.4" height="214.3"/>
		</defs>
		<clipPath id="SVGID_132_">
			<use xlink:href="#SVGID_131_"  style="overflow:visible;"/>
		</clipPath>
		<g style="clip-path:url(#SVGID_132_);">
			
				<use xlink:href="#Nouveau_symbole_1"  width="320.4" height="214.3" x="-160.2" y="-107.2" transform="matrix(1 0 0 -1 1352.2107 1497.0018)" style="overflow:visible;"/>
		</g>
	</g>
	<g>
		<defs>
			<rect id="SVGID_133_" x="1706.5" y="1608.8" width="320.4" height="214.3"/>
		</defs>
		<clipPath id="SVGID_134_">
			<use xlink:href="#SVGID_133_"  style="overflow:visible;"/>
		</clipPath>
		<g style="clip-path:url(#SVGID_134_);">
			
				<use xlink:href="#Nouveau_symbole_1"  width="320.4" height="214.3" x="-160.2" y="-107.2" transform="matrix(1 0 0 -1 1865.7233 1716.9832)" style="overflow:visible;"/>
		</g>
	</g>
	<g>
		<defs>
			<rect id="SVGID_135_" x="2909.1" y="1596.8" width="320.4" height="214.3"/>
		</defs>
		<clipPath id="SVGID_136_">
			<use xlink:href="#SVGID_135_"  style="overflow:visible;"/>
		</clipPath>
		<g style="clip-path:url(#SVGID_136_);">
			
				<use xlink:href="#Nouveau_symbole_1"  width="320.4" height="214.3" x="-160.2" y="-107.2" transform="matrix(1 0 0 -1 3068.3069 1704.9855)" style="overflow:visible;"/>
		</g>
	</g>
	<g>
		<defs>
			<rect id="SVGID_137_" x="2469.3" y="1540.2" width="320.4" height="214.3"/>
		</defs>
		<clipPath id="SVGID_138_">
			<use xlink:href="#SVGID_137_"  style="overflow:visible;"/>
		</clipPath>
		<g style="clip-path:url(#SVGID_138_);">
			
				<use xlink:href="#Nouveau_symbole_1"  width="320.4" height="214.3" x="-160.2" y="-107.2" transform="matrix(1 0 0 -1 2628.4885 1648.3661)" style="overflow:visible;"/>
		</g>
	</g>
	<g>
		<defs>
			<rect id="SVGID_139_" x="568.5" y="214.9" width="320.4" height="214.3"/>
		</defs>
		<clipPath id="SVGID_140_">
			<use xlink:href="#SVGID_139_"  style="overflow:visible;"/>
		</clipPath>
		<g style="clip-path:url(#SVGID_140_);">
			
				<use xlink:href="#Nouveau_symbole_1"  width="320.4" height="214.3" x="-160.2" y="-107.2" transform="matrix(1 0 0 -1 727.6989 323.1415)" style="overflow:visible;"/>
		</g>
	</g>
	<g>
		<defs>
			<rect id="SVGID_141_" x="3585.1" y="1326.8" width="320.4" height="214.3"/>
		</defs>
		<clipPath id="SVGID_142_">
			<use xlink:href="#SVGID_141_"  style="overflow:visible;"/>
		</clipPath>
		<g style="clip-path:url(#SVGID_142_);">
			
				<use xlink:href="#Nouveau_symbole_1"  width="320.4" height="214.3" x="-160.2" y="-107.2" transform="matrix(1 0 0 -1 3744.2922 1434.9633)" style="overflow:visible;"/>
		</g>
	</g>
	<g>
		<defs>
			<rect id="SVGID_143_" x="2819.2" y="1499.5" width="320.4" height="214.3"/>
		</defs>
		<clipPath id="SVGID_144_">
			<use xlink:href="#SVGID_143_"  style="overflow:visible;"/>
		</clipPath>
		<g style="clip-path:url(#SVGID_144_);">
			
				<use xlink:href="#Nouveau_symbole_1"  width="320.4" height="214.3" x="-160.2" y="-107.2" transform="matrix(1 0 0 -1 2978.4092 1607.7308)" style="overflow:visible;"/>
		</g>
	</g>
	<g>
		<defs>
			<rect id="SVGID_145_" x="1670.2" y="1026.3" width="320.4" height="214.3"/>
		</defs>
		<clipPath id="SVGID_146_">
			<use xlink:href="#SVGID_145_"  style="overflow:visible;"/>
		</clipPath>
		<g style="clip-path:url(#SVGID_146_);">
			
				<use xlink:href="#Nouveau_symbole_1"  width="320.4" height="214.3" x="-160.2" y="-107.2" transform="matrix(1 0 0 -1 1829.4075 1134.4515)" style="overflow:visible;"/>
		</g>
	</g>
	<g>
		<defs>
			<rect id="SVGID_147_" x="1677.7" y="425.2" width="320.4" height="214.3"/>
		</defs>
		<clipPath id="SVGID_148_">
			<use xlink:href="#SVGID_147_"  style="overflow:visible;"/>
		</clipPath>
		<g style="clip-path:url(#SVGID_148_);">
			
				<use xlink:href="#Nouveau_symbole_1"  width="320.4" height="214.3" x="-160.2" y="-107.2" transform="matrix(1 0 0 -1 1836.921 533.3765)" style="overflow:visible;"/>
		</g>
	</g>
	<g>
		<defs>
			<rect id="SVGID_149_" x="1753" y="283.4" width="320.4" height="214.3"/>
		</defs>
		<clipPath id="SVGID_150_">
			<use xlink:href="#SVGID_149_"  style="overflow:visible;"/>
		</clipPath>
		<g style="clip-path:url(#SVGID_150_);">
			
				<use xlink:href="#Nouveau_symbole_1"  width="320.4" height="214.3" x="-160.2" y="-107.2" transform="matrix(1 0 0 -1 1912.1803 391.6234)" style="overflow:visible;"/>
		</g>
	</g>
	<g>
		<defs>
			<rect id="SVGID_151_" x="212.1" y="1098.3" width="320.4" height="214.3"/>
		</defs>
		<clipPath id="SVGID_152_">
			<use xlink:href="#SVGID_151_"  style="overflow:visible;"/>
		</clipPath>
		<g style="clip-path:url(#SVGID_152_);">
			
				<use xlink:href="#Nouveau_symbole_1"  width="320.4" height="214.3" x="-160.2" y="-107.2" transform="matrix(1 0 0 -1 371.3405 1206.4791)" style="overflow:visible;"/>
		</g>
	</g>
	<g>
		<defs>
			<rect id="SVGID_153_" x="1480.9" y="1627.9" width="320.4" height="214.3"/>
		</defs>
		<clipPath id="SVGID_154_">
			<use xlink:href="#SVGID_153_"  style="overflow:visible;"/>
		</clipPath>
		<g style="clip-path:url(#SVGID_154_);">
			
				<use xlink:href="#Nouveau_symbole_1"  width="320.4" height="214.3" x="-160.2" y="-107.2" transform="matrix(1 0 0 -1 1640.1117 1736.0933)" style="overflow:visible;"/>
		</g>
	</g>
</g>
<g class="st1">
	<g>
		<defs>
			<rect id="SVGID_155_" x="3089.1" y="1564.7" width="320.4" height="214.3"/>
		</defs>
		<clipPath id="SVGID_156_">
			<use xlink:href="#SVGID_155_"  style="overflow:visible;"/>
		</clipPath>
		<g style="clip-path:url(#SVGID_156_);">
			
				<use xlink:href="#Nouveau_symbole_1"  width="320.4" height="214.3" x="-160.2" y="-107.2" transform="matrix(1 0 0 -1 3248.3047 1672.9277)" style="overflow:visible;"/>
		</g>
	</g>
	<g>
		<defs>
			<rect id="SVGID_157_" x="2565.3" y="968" width="320.4" height="214.3"/>
		</defs>
		<clipPath id="SVGID_158_">
			<use xlink:href="#SVGID_157_"  style="overflow:visible;"/>
		</clipPath>
		<g style="clip-path:url(#SVGID_158_);">
			
				<use xlink:href="#Nouveau_symbole_1"  width="320.4" height="214.3" x="-160.2" y="-107.2" transform="matrix(1 0 0 -1 2724.4583 1076.223)" style="overflow:visible;"/>
		</g>
	</g>
	<g>
		<defs>
			<rect id="SVGID_159_" x="1834.1" y="827.9" width="320.4" height="214.3"/>
		</defs>
		<clipPath id="SVGID_160_">
			<use xlink:href="#SVGID_159_"  style="overflow:visible;"/>
		</clipPath>
		<g style="clip-path:url(#SVGID_160_);">
			
				<use xlink:href="#Nouveau_symbole_1"  width="320.4" height="214.3" x="-160.2" y="-107.2" transform="matrix(1 0 0 -1 1993.2935 936.1329)" style="overflow:visible;"/>
		</g>
	</g>
	<g>
		<defs>
			<rect id="SVGID_161_" x="942.7" y="823.9" width="320.4" height="214.3"/>
		</defs>
		<clipPath id="SVGID_162_">
			<use xlink:href="#SVGID_161_"  style="overflow:visible;"/>
		</clipPath>
		<g style="clip-path:url(#SVGID_162_);">
			
				<use xlink:href="#Nouveau_symbole_1"  width="320.4" height="214.3" x="-160.2" y="-107.2" transform="matrix(1 0 0 -1 1101.9136 932.1223)" style="overflow:visible;"/>
		</g>
	</g>
	<g>
		<defs>
			<rect id="SVGID_163_" x="439.4" y="796.2" width="320.4" height="214.3"/>
		</defs>
		<clipPath id="SVGID_164_">
			<use xlink:href="#SVGID_163_"  style="overflow:visible;"/>
		</clipPath>
		<g style="clip-path:url(#SVGID_164_);">
			
				<use xlink:href="#Nouveau_symbole_1"  width="320.4" height="214.3" x="-160.2" y="-107.2" transform="matrix(1 0 0 -1 598.6035 904.4113)" style="overflow:visible;"/>
		</g>
	</g>
	<g>
		<defs>
			<rect id="SVGID_165_" x="-34.9" y="612.4" width="320.4" height="214.3"/>
		</defs>
		<clipPath id="SVGID_166_">
			<use xlink:href="#SVGID_165_"  style="overflow:visible;"/>
		</clipPath>
		<g style="clip-path:url(#SVGID_166_);">
			
				<use xlink:href="#Nouveau_symbole_1"  width="320.4" height="214.3" x="-160.2" y="-107.2" transform="matrix(1 0 0 -1 124.3327 720.6085)" style="overflow:visible;"/>
		</g>
	</g>
	<g>
		<defs>
			<rect id="SVGID_167_" x="668.5" y="458.4" width="320.4" height="214.3"/>
		</defs>
		<clipPath id="SVGID_168_">
			<use xlink:href="#SVGID_167_"  style="overflow:visible;"/>
		</clipPath>
		<g style="clip-path:url(#SVGID_168_);">
			
				<use xlink:href="#Nouveau_symbole_1"  width="320.4" height="214.3" x="-160.2" y="-107.2" transform="matrix(1 0 0 -1 827.6795 566.6314)" style="overflow:visible;"/>
		</g>
	</g>
	<g>
		<defs>
			<rect id="SVGID_169_" x="1739.8" y="454.5" width="320.4" height="214.3"/>
		</defs>
		<clipPath id="SVGID_170_">
			<use xlink:href="#SVGID_169_"  style="overflow:visible;"/>
		</clipPath>
		<g style="clip-path:url(#SVGID_170_);">
			
				<use xlink:href="#Nouveau_symbole_1"  width="320.4" height="214.3" x="-160.2" y="-107.2" transform="matrix(1 0 0 -1 1898.9728 562.6929)" style="overflow:visible;"/>
		</g>
	</g>
	<g>
		<defs>
			<rect id="SVGID_171_" x="2323.4" y="346.1" width="320.4" height="214.3"/>
		</defs>
		<clipPath id="SVGID_172_">
			<use xlink:href="#SVGID_171_"  style="overflow:visible;"/>
		</clipPath>
		<g style="clip-path:url(#SVGID_172_);">
			
				<use xlink:href="#Nouveau_symbole_1"  width="320.4" height="214.3" x="-160.2" y="-107.2" transform="matrix(1 0 0 -1 2482.5972 454.3275)" style="overflow:visible;"/>
		</g>
	</g>
	<g>
		<defs>
			<rect id="SVGID_173_" x="2557.6" y="81.7" width="320.4" height="214.3"/>
		</defs>
		<clipPath id="SVGID_174_">
			<use xlink:href="#SVGID_173_"  style="overflow:visible;"/>
		</clipPath>
		<g style="clip-path:url(#SVGID_174_);">
			
				<use xlink:href="#Nouveau_symbole_1"  width="320.4" height="214.3" x="-160.2" y="-107.2" transform="matrix(1 0 0 -1 2716.8469 189.8563)" style="overflow:visible;"/>
		</g>
	</g>
	<g>
		<defs>
			<rect id="SVGID_175_" x="1665.4" y="-55.8" width="320.4" height="214.3"/>
		</defs>
		<clipPath id="SVGID_176_">
			<use xlink:href="#SVGID_175_"  style="overflow:visible;"/>
		</clipPath>
		<g style="clip-path:url(#SVGID_176_);">
			
				<use xlink:href="#Nouveau_symbole_1"  width="320.4" height="214.3" x="-160.2" y="-107.2" transform="matrix(1 0 0 -1 1824.6235 52.3741)" style="overflow:visible;"/>
		</g>
	</g>
	<g>
		<defs>
			<rect id="SVGID_177_" x="804" y="195.6" width="320.4" height="214.3"/>
		</defs>
		<clipPath id="SVGID_178_">
			<use xlink:href="#SVGID_177_"  style="overflow:visible;"/>
		</clipPath>
		<g style="clip-path:url(#SVGID_178_);">
			
				<use xlink:href="#Nouveau_symbole_1"  width="320.4" height="214.3" x="-160.2" y="-107.2" transform="matrix(1 0 0 -1 963.2046 303.7513)" style="overflow:visible;"/>
		</g>
	</g>
	<g>
		<defs>
			<rect id="SVGID_179_" x="334.3" y="829.9" width="320.4" height="214.3"/>
		</defs>
		<clipPath id="SVGID_180_">
			<use xlink:href="#SVGID_179_"  style="overflow:visible;"/>
		</clipPath>
		<g style="clip-path:url(#SVGID_180_);">
			
				<use xlink:href="#Nouveau_symbole_1"  width="320.4" height="214.3" x="-160.2" y="-107.2" transform="matrix(1 0 0 -1 493.5008 938.096)" style="overflow:visible;"/>
		</g>
	</g>
	<g>
		<defs>
			<rect id="SVGID_181_" x="321.4" y="1092.9" width="320.4" height="214.3"/>
		</defs>
		<clipPath id="SVGID_182_">
			<use xlink:href="#SVGID_181_"  style="overflow:visible;"/>
		</clipPath>
		<g style="clip-path:url(#SVGID_182_);">
			
				<use xlink:href="#Nouveau_symbole_1"  width="320.4" height="214.3" x="-160.2" y="-107.2" transform="matrix(1 0 0 -1 480.5828 1201.1353)" style="overflow:visible;"/>
		</g>
	</g>
	<g>
		<defs>
			<rect id="SVGID_183_" x="1051.7" y="1186.2" width="320.4" height="214.3"/>
		</defs>
		<clipPath id="SVGID_184_">
			<use xlink:href="#SVGID_183_"  style="overflow:visible;"/>
		</clipPath>
		<g style="clip-path:url(#SVGID_184_);">
			
				<use xlink:href="#Nouveau_symbole_1"  width="320.4" height="214.3" x="-160.2" y="-107.2" transform="matrix(1 0 0 -1 1210.8906 1294.4194)" style="overflow:visible;"/>
		</g>
	</g>
	<g>
		<defs>
			<rect id="SVGID_185_" x="1766.2" y="1242" width="320.4" height="214.3"/>
		</defs>
		<clipPath id="SVGID_186_">
			<use xlink:href="#SVGID_185_"  style="overflow:visible;"/>
		</clipPath>
		<g style="clip-path:url(#SVGID_186_);">
			
				<use xlink:href="#Nouveau_symbole_1"  width="320.4" height="214.3" x="-160.2" y="-107.2" transform="matrix(1 0 0 -1 1925.4353 1350.2448)" style="overflow:visible;"/>
		</g>
	</g>
	<g>
		<defs>
			<rect id="SVGID_187_" x="2673.1" y="1282.3" width="320.4" height="214.3"/>
		</defs>
		<clipPath id="SVGID_188_">
			<use xlink:href="#SVGID_187_"  style="overflow:visible;"/>
		</clipPath>
		<g style="clip-path:url(#SVGID_188_);">
			
				<use xlink:href="#Nouveau_symbole_1"  width="320.4" height="214.3" x="-160.2" y="-107.2" transform="matrix(1 0 0 -1 2832.3328 1390.5074)" style="overflow:visible;"/>
		</g>
	</g>
	<g>
		<defs>
			<rect id="SVGID_189_" x="2923.5" y="1243.6" width="320.4" height="214.3"/>
		</defs>
		<clipPath id="SVGID_190_">
			<use xlink:href="#SVGID_189_"  style="overflow:visible;"/>
		</clipPath>
		<g style="clip-path:url(#SVGID_190_);">
			
				<use xlink:href="#Nouveau_symbole_1"  width="320.4" height="214.3" x="-160.2" y="-107.2" transform="matrix(1 0 0 -1 3082.6501 1351.8044)" style="overflow:visible;"/>
		</g>
	</g>
	<g>
		<defs>
			<rect id="SVGID_191_" x="2851.9" y="803.7" width="320.4" height="214.3"/>
		</defs>
		<clipPath id="SVGID_192_">
			<use xlink:href="#SVGID_191_"  style="overflow:visible;"/>
		</clipPath>
		<g style="clip-path:url(#SVGID_192_);">
			
				<use xlink:href="#Nouveau_symbole_1"  width="320.4" height="214.3" x="-160.2" y="-107.2" transform="matrix(1 0 0 -1 3011.0818 911.9258)" style="overflow:visible;"/>
		</g>
	</g>
	<g>
		<defs>
			<rect id="SVGID_193_" x="2466.6" y="671.8" width="320.4" height="214.3"/>
		</defs>
		<clipPath id="SVGID_194_">
			<use xlink:href="#SVGID_193_"  style="overflow:visible;"/>
		</clipPath>
		<g style="clip-path:url(#SVGID_194_);">
			
				<use xlink:href="#Nouveau_symbole_1"  width="320.4" height="214.3" x="-160.2" y="-107.2" transform="matrix(1 0 0 -1 2625.8418 779.9637)" style="overflow:visible;"/>
		</g>
	</g>
	<g>
		<defs>
			<rect id="SVGID_195_" x="1632.3" y="671.3" width="320.4" height="214.3"/>
		</defs>
		<clipPath id="SVGID_196_">
			<use xlink:href="#SVGID_195_"  style="overflow:visible;"/>
		</clipPath>
		<g style="clip-path:url(#SVGID_196_);">
			
				<use xlink:href="#Nouveau_symbole_1"  width="320.4" height="214.3" x="-160.2" y="-107.2" transform="matrix(1 0 0 -1 1791.4766 779.4723)" style="overflow:visible;"/>
		</g>
	</g>
</g>
</svg>
