<svg width="447" height="90" viewBox="0 0 447 90" fill="none" xmlns="http://www.w3.org/2000/svg">
<g clip-path="url(#clip0)">
<path d="M36.7693 75.6458C31.8592 75.6766 26.9971 74.6793 22.4963 72.7182C18.0731 70.797 14.0751 68.0187 10.7334 64.544C5.58859 59.1302 2.10593 52.3557 0.698595 45.024C-0.708742 37.6923 0.0183036 30.1112 2.79348 23.1799C4.59273 18.6924 7.25856 14.6028 10.6389 11.1442C13.9851 7.69373 17.9643 4.91858 22.3598 2.97C26.9003 0.98278 31.8125 -0.0152342 36.7693 0.0424037C40.98 -0.0100358 45.1685 0.660795 49.1518 2.02561C53.0897 3.4676 56.7387 5.59961 59.9275 8.32152C60.1966 8.49821 60.4279 8.72643 60.6082 8.99299C60.7885 9.25955 60.9141 9.55916 60.9777 9.87451C61.0591 10.4613 60.9563 11.0589 60.6837 11.5849C60.4535 12.0988 60.0529 12.5177 59.5494 12.7706C59.4879 13.0186 59.3708 13.2495 59.2071 13.4458C59.0434 13.6421 58.8372 13.7987 58.6042 13.9039C58.0619 14.1625 57.457 14.2608 56.8607 14.1872C56.1434 14.1014 55.4674 13.8057 54.9178 13.3373C52.5633 11.256 49.8377 9.63628 46.8833 8.56287C43.6262 7.46882 40.2049 6.94347 36.7693 7.00987C32.8077 6.98665 28.8891 7.83198 25.29 9.48626C21.7386 11.0961 18.5297 13.3724 15.8377 16.1914C13.1195 19.0404 10.9574 22.3713 9.46262 26.013C7.92093 29.7562 7.14597 33.7703 7.18356 37.8178C7.14736 41.9305 7.9366 46.0088 9.50463 49.8116C10.9994 53.4532 13.1615 56.7842 15.8797 59.6332C18.5656 62.4459 21.7768 64.7059 25.332 66.2858C28.9405 67.9047 32.8558 68.7279 36.8113 68.6993C40.1691 68.7069 43.5014 68.1171 46.6522 66.9574C49.8174 65.781 52.7823 64.1247 55.4429 62.0466C55.7654 61.7514 56.149 61.5307 56.5665 61.4001C56.9839 61.2696 57.425 61.2323 57.8585 61.2911C58.702 61.4143 59.4812 61.8127 60.0745 62.4243C60.3909 62.7479 60.6379 63.1325 60.8004 63.5547C60.9629 63.9769 61.0376 64.4278 61.0197 64.8798C61.0227 65.3444 60.9445 65.806 60.7887 66.2439C60.5891 66.7109 60.3161 67.1431 59.98 67.524C56.9089 70.4072 53.2253 72.5595 49.2044 73.8199C45.1757 75.0536 40.9829 75.6692 36.7693 75.6458Z" fill="white"/>
<path d="M95.2792 75.1731C90.552 75.2532 85.8881 74.0801 81.7623 71.7734C77.8503 69.5648 74.6151 66.3324 72.4045 62.4239C70.0957 58.3019 68.9216 53.6421 69.0017 48.9192C68.9064 44.1513 70.0807 39.4436 72.4045 35.2781C74.6151 31.3696 77.8503 28.1372 81.7623 25.9286C85.91 23.6969 90.5472 22.5286 95.2581 22.5286C99.9691 22.5286 104.606 23.6969 108.754 25.9286C112.651 28.1611 115.87 31.4064 118.07 35.32C120.395 39.489 121.6 44.1887 121.567 48.9612C121.62 53.6796 120.412 58.3266 118.07 62.4239C115.836 66.3144 112.606 69.5412 108.712 71.7734C104.615 74.0751 99.9791 75.2484 95.2792 75.1731ZM95.2792 68.5624C98.7265 68.6169 102.124 67.7356 105.11 66.0126C107.974 64.3477 110.328 61.9308 111.915 59.0241C113.589 55.9225 114.435 52.4425 114.373 48.9192C114.431 45.3797 113.585 41.8838 111.915 38.7618C110.338 35.8365 107.983 33.4035 105.11 31.7314C102.103 30.059 98.7198 29.1813 95.2792 29.1813C91.8385 29.1813 88.4548 30.059 85.4487 31.7314C82.5677 33.4077 80.1998 35.8387 78.6011 38.7618C76.8833 41.8688 76.0072 45.3701 76.0594 48.9192C75.9936 52.4493 76.8593 55.9345 78.5696 59.0241C80.1787 61.9286 82.545 64.3436 85.4172 66.0126C88.412 67.7411 91.8211 68.6226 95.2792 68.5624Z" fill="white"/>
<path d="M139.421 74.701C138.923 74.719 138.427 74.6353 137.963 74.4548C137.499 74.2744 137.077 74.0011 136.722 73.6516C136.389 73.3098 136.13 72.9035 135.96 72.4578C135.79 72.012 135.714 71.5363 135.735 71.0598V26.7261C135.693 26.232 135.76 25.7348 135.931 25.2691C136.101 24.8035 136.372 24.3806 136.723 24.03C137.074 23.6793 137.497 23.4094 137.963 23.2389C138.429 23.0685 138.927 23.0016 139.421 23.043C139.898 23.0219 140.374 23.0984 140.82 23.2681C141.267 23.4377 141.673 23.6968 142.015 24.0294C142.356 24.388 142.62 24.812 142.791 25.2755C142.963 25.7391 143.038 26.2326 143.013 26.7261V71.1123C143.037 71.5899 142.961 72.0673 142.789 72.5136C142.617 72.9599 142.353 73.3652 142.015 73.7034C141.676 74.0415 141.27 74.305 140.824 74.4769C140.377 74.6487 139.899 74.725 139.421 74.701ZM180.066 74.701C179.577 74.7161 179.089 74.6309 178.634 74.4504C178.179 74.2699 177.765 73.9981 177.42 73.6516C177.079 73.3211 176.81 72.9243 176.629 72.4857C176.449 72.047 176.36 71.576 176.369 71.1018V46.5582C176.5 43.2064 175.732 39.8805 174.143 36.9255C172.736 34.4766 170.63 32.5035 168.093 31.2592C165.428 30.0307 162.531 29.3867 159.596 29.3704C156.662 29.3541 153.757 29.9659 151.079 31.1647C148.715 32.2575 146.68 33.9508 145.177 36.0756C143.728 38.151 142.967 40.6283 143.003 43.1585H137.814C137.888 39.4008 139.001 35.7366 141.028 32.5708C143.033 29.4756 145.799 26.9464 149.063 25.2256C152.496 23.4101 156.332 22.4863 160.216 22.5394C164.378 22.437 168.501 23.3595 172.221 25.2256C175.759 27.0738 178.68 29.915 180.623 33.3998C182.78 37.4311 183.841 41.9575 183.7 46.5268V71.0808C183.71 71.5626 183.622 72.0414 183.441 72.488C183.26 72.9346 182.99 73.3397 182.647 73.6785C182.304 74.0172 181.895 74.2826 181.446 74.4584C180.997 74.6342 180.517 74.7167 180.035 74.701H180.066Z" fill="white"/>
<path d="M217.781 75.1731C214.015 75.1649 210.277 74.5265 206.722 73.2844C203.341 72.1813 200.3 70.2304 197.889 67.618C197.561 67.2869 197.313 66.8847 197.166 66.4424C197.018 66.0002 196.975 65.53 197.039 65.0682C197.178 64.0983 197.686 63.2192 198.456 62.6128C199.21 62.0342 200.155 61.7614 201.101 61.8489C202.048 61.9365 202.926 62.378 203.561 63.085C205.162 64.9362 207.207 66.3514 209.505 67.1983C212.154 68.1704 214.959 68.6505 217.781 68.6149C222.444 68.6149 225.816 67.8104 227.895 66.2015C228.845 65.5496 229.629 64.686 230.187 63.6789C230.745 62.6717 231.061 61.5487 231.109 60.3987C231.099 59.2649 230.799 58.1526 230.236 57.1679C229.673 56.1833 228.867 55.3592 227.895 54.7744C225.753 53.2983 222.224 52.1511 217.309 51.3326C210.944 50.3253 206.281 48.5764 203.319 46.086C201.946 45.0249 200.833 43.6658 200.063 42.1115C199.294 40.5572 198.888 38.8484 198.877 37.1144C198.773 34.2243 199.675 31.3876 201.429 29.0871C203.199 26.8531 205.555 25.1532 208.234 24.1763C211.23 23.0774 214.401 22.5334 217.592 22.5708C221.346 22.4737 225.074 23.2158 228.504 24.7429C231.413 26.0718 233.96 28.08 235.93 30.5981C236.226 30.9476 236.446 31.3548 236.576 31.7937C236.706 32.2326 236.743 32.6938 236.686 33.1479C236.612 33.5999 236.438 34.0296 236.176 34.4055C235.915 34.7814 235.572 35.0939 235.173 35.32C234.374 35.7622 233.443 35.9036 232.548 35.7188C231.581 35.5687 230.697 35.0863 230.048 34.3547C228.568 32.597 226.688 31.2189 224.566 30.3358C222.276 29.4506 219.836 29.0193 217.382 29.0661C214.461 28.9129 211.562 29.6444 209.064 31.1647C208.122 31.7078 207.337 32.485 206.785 33.4209C206.233 34.3568 205.933 35.4196 205.913 36.5058C205.882 37.8595 206.295 39.1862 207.09 40.2833C208.173 41.5669 209.574 42.5438 211.154 43.1165C213.76 44.1231 216.474 44.8273 219.241 45.2151C223.136 45.7172 226.922 46.8551 230.447 48.5834C232.846 49.7616 234.873 51.5768 236.308 53.83C237.467 55.79 238.074 58.0275 238.062 60.3043C238.107 63.1204 237.188 65.8676 235.457 68.0902C233.568 70.4423 231.09 72.2525 228.273 73.3368C224.93 74.6279 221.365 75.2518 217.781 75.1731Z" fill="white"/>
<path d="M247.367 31.2592C246.933 31.2721 246.501 31.1991 246.095 31.0442C245.689 30.8893 245.319 30.6556 245.004 30.3568C244.698 30.0757 244.456 29.733 244.293 29.3513C244.13 28.9696 244.05 28.5576 244.059 28.1427C244.044 27.7114 244.12 27.282 244.283 26.8823C244.446 26.4827 244.692 26.1219 245.004 25.8237C245.319 25.5262 245.69 25.2942 246.096 25.1411C246.502 24.988 246.934 24.9168 247.367 24.9318H271.47C271.904 24.9174 272.336 24.9888 272.741 25.1419C273.147 25.295 273.518 25.5267 273.834 25.8237C274.146 26.1219 274.391 26.4827 274.554 26.8823C274.717 27.282 274.794 27.7114 274.779 28.1427C274.787 28.5576 274.707 28.9696 274.544 29.3513C274.381 29.733 274.139 30.0757 273.834 30.3568C273.518 30.6552 273.148 30.8885 272.742 31.0434C272.337 31.1982 271.904 31.2716 271.47 31.2592H247.367ZM270.903 74.7009C267.813 74.7604 264.766 73.967 262.098 72.4082C259.43 70.8494 257.243 68.5856 255.78 65.8657C254.222 62.9655 253.44 59.7124 253.511 56.4218V10.2518C253.493 9.76779 253.571 9.28497 253.74 8.83115C253.91 8.37733 254.167 7.96148 254.498 7.60754C254.834 7.25967 255.24 6.98644 255.689 6.80565C256.137 6.62485 256.619 6.54055 257.103 6.55822C257.592 6.5406 258.079 6.62382 258.534 6.80268C258.989 6.98154 259.403 7.2522 259.749 7.59778C260.095 7.94337 260.366 8.35646 260.545 8.81128C260.724 9.26611 260.807 9.75291 260.789 10.2413V56.4113C260.674 59.3064 261.691 62.1326 263.625 64.2917C264.544 65.2985 265.671 66.0946 266.927 66.6253C268.184 67.156 269.54 67.4088 270.903 67.3662H273.508C273.97 67.3505 274.429 67.4363 274.854 67.6176C275.278 67.7989 275.658 68.0713 275.966 68.4155C276.609 69.1429 276.947 70.0898 276.911 71.0598C276.928 71.549 276.835 72.0359 276.638 72.4844C276.442 72.933 276.147 73.3318 275.777 73.6516C274.994 74.3409 273.984 74.715 272.941 74.7009H270.903Z" fill="white"/>
<path d="M312.115 75.1731C307.376 75.2633 302.696 74.1053 298.546 71.8153C294.651 69.6334 291.437 66.4152 289.262 62.5184C286.97 58.3425 285.815 53.6388 285.911 48.8772C285.809 44.139 286.892 39.4502 289.062 35.2361C291.081 31.4023 294.105 28.1888 297.811 25.9391C301.693 23.6266 306.147 22.4487 310.666 22.5393C315.061 22.4341 319.398 23.561 323.185 25.7922C326.741 27.9591 329.611 31.0879 331.461 34.8164C333.485 38.9035 334.501 43.4154 334.423 47.9748C334.444 48.4193 334.371 48.8633 334.208 49.2776C334.045 49.6918 333.796 50.0667 333.478 50.3777C332.81 50.992 331.927 51.3166 331.02 51.2802H290.848V45.2361H331.808L327.743 48.1637C327.861 44.7796 327.181 41.4153 325.758 38.3421C324.466 35.5502 322.404 33.1843 319.814 31.5215C317.079 29.8333 313.911 28.9799 310.698 29.0661C307.367 28.9948 304.087 29.8797 301.245 31.6159C298.524 33.3195 296.339 35.7566 294.944 38.6464C293.419 41.8456 292.66 45.3554 292.728 48.8982C292.656 52.4576 293.518 55.9738 295.227 59.0976C296.837 62.0248 299.211 64.4615 302.096 66.149C305.143 67.8889 308.606 68.7702 312.115 68.6988C314.448 68.6862 316.762 68.2855 318.963 67.5131C320.98 66.8832 322.858 65.8754 324.498 64.5435C325.162 63.9864 325.994 63.6686 326.861 63.6411C327.679 63.5908 328.488 63.845 329.13 64.3547C329.497 64.6561 329.8 65.0293 330.018 65.4515C330.237 65.8737 330.367 66.336 330.4 66.8101C330.419 67.2442 330.334 67.6766 330.151 68.071C329.969 68.4654 329.694 68.8102 329.35 69.0766C326.985 70.9977 324.296 72.4829 321.41 73.4627C318.436 74.5716 315.29 75.1505 312.115 75.1731Z" fill="white"/>
<path d="M357.864 74.701C355.446 74.7261 353.08 73.9921 351.101 72.6023C349.056 71.1444 347.453 69.151 346.469 66.8416C345.322 64.1573 344.76 61.26 344.82 58.3421V4.53306C344.82 4.06179 344.913 3.59514 345.094 3.15974C345.274 2.72434 345.539 2.32873 345.872 1.99549C346.206 1.66225 346.602 1.39792 347.038 1.21757C347.473 1.03722 347.94 0.944397 348.412 0.944397C348.884 0.944397 349.351 1.03722 349.787 1.21757C350.222 1.39792 350.618 1.66225 350.952 1.99549C351.286 2.32873 351.55 2.72434 351.731 3.15974C351.911 3.59514 352.004 4.06179 352.004 4.53306V58.3631C351.901 60.6797 352.474 62.9765 353.653 64.9738C354.066 65.7312 354.672 66.366 355.41 66.8139C356.148 67.2617 356.991 67.5065 357.854 67.5236H360.217C360.645 67.5061 361.072 67.5857 361.465 67.7566C361.858 67.9274 362.207 68.185 362.486 68.51C363.078 69.2445 363.38 70.1702 363.336 71.1123C363.351 71.6063 363.251 72.097 363.045 72.5465C362.84 72.9959 362.533 73.392 362.149 73.7041C361.289 74.4141 360.199 74.787 359.083 74.7534L357.864 74.701Z" fill="white"/>
<path d="M384.52 74.701C382.101 74.7261 379.735 73.9921 377.756 72.6023C375.711 71.1444 374.109 69.151 373.125 66.8416C371.978 64.1573 371.416 61.26 371.476 58.3421V4.53306C371.476 4.06179 371.569 3.59514 371.749 3.15974C371.93 2.72434 372.194 2.32873 372.528 1.99549C372.861 1.66225 373.257 1.39792 373.693 1.21757C374.129 1.03722 374.596 0.944397 375.068 0.944397C375.539 0.944397 376.006 1.03722 376.442 1.21757C376.878 1.39792 377.274 1.66225 377.607 1.99549C377.941 2.32873 378.206 2.72434 378.386 3.15974C378.567 3.59514 378.66 4.06179 378.66 4.53306V58.3631C378.556 60.6797 379.129 62.9765 380.308 64.9738C380.721 65.7312 381.327 66.366 382.065 66.8139C382.803 67.2617 383.646 67.5065 384.509 67.5236H386.936C387.364 67.5061 387.79 67.5857 388.183 67.7566C388.576 67.9274 388.925 68.185 389.204 68.51C389.796 69.2445 390.099 70.1702 390.055 71.1123C390.069 71.6063 389.97 72.097 389.764 72.5465C389.558 72.9959 389.252 73.392 388.868 73.7041C388.007 74.4141 386.917 74.787 385.801 74.7534L384.52 74.701Z" fill="white"/>
<path d="M419.967 75.1732C415.452 75.2446 411.004 74.0869 407.098 71.8243C403.192 69.5616 399.976 66.2794 397.796 62.3295C395.526 58.2284 394.371 53.6049 394.445 48.9192C394.364 44.1909 395.554 39.5273 397.89 35.4145C400.142 31.4809 403.405 28.2204 407.342 25.9706C411.427 23.6432 416.063 22.4546 420.765 22.5289C425.45 22.4516 430.07 23.6407 434.134 25.9706C438.034 28.2373 441.263 31.4958 443.492 35.4145C445.834 39.5298 447.058 44.1854 447.042 48.9192L444.112 51.1858C444.181 55.4695 443.092 59.6925 440.961 63.4103C438.9 66.9806 435.933 69.9449 432.36 72.0042C428.591 74.1599 424.308 75.255 419.967 75.1732ZM420.723 68.5625C424.154 68.6211 427.536 67.7392 430.501 66.0126C433.376 64.3246 435.742 61.892 437.348 58.9717C439.042 55.8946 439.907 52.4307 439.858 48.9192C439.91 45.4075 439.045 41.9429 437.348 38.8668C435.736 35.9651 433.389 33.5373 430.543 31.8258C427.572 30.1279 424.208 29.2347 420.786 29.2347C417.363 29.2347 414 30.1279 411.029 31.8258C408.14 33.5278 405.747 35.9551 404.087 38.8668C402.354 41.9494 401.473 45.4369 401.535 48.9717C401.483 52.4888 402.363 55.9569 404.087 59.0242C405.732 61.9769 408.148 64.4283 411.078 66.1173C414.007 67.8063 417.341 68.6695 420.723 68.6149V68.5625ZM443.314 74.701C442.825 74.7101 442.339 74.6221 441.885 74.4419C441.43 74.2618 441.017 73.9931 440.667 73.6516C440.319 73.3183 440.045 72.915 439.864 72.4682C439.683 72.0215 439.599 71.5415 439.617 71.0598V54.9633L441.413 47.5026L446.99 48.9192V71.1123C447.008 71.5939 446.924 72.0739 446.743 72.5207C446.562 72.9674 446.288 73.3708 445.939 73.7041C445.23 74.3696 444.286 74.7279 443.314 74.701Z" fill="white"/>
<path d="M77.4246 88.5624L84.7449 58.1217L103.839 43.2529" stroke="white" stroke-width="2" stroke-miterlimit="10"/>
<path d="M77.9708 89.4858C80.0242 89.4858 81.6888 87.8227 81.6888 85.7712C81.6888 83.7197 80.0242 82.0566 77.9708 82.0566C75.9175 82.0566 74.2529 83.7197 74.2529 85.7712C74.2529 87.8227 75.9175 89.4858 77.9708 89.4858Z" fill="white" stroke="white" stroke-miterlimit="10"/>
<path d="M85.06 63.0535C87.4555 63.0535 89.3975 61.1133 89.3975 58.7198C89.3975 56.3264 87.4555 54.3862 85.06 54.3862C82.6644 54.3862 80.7224 56.3264 80.7224 58.7198C80.7224 61.1133 82.6644 63.0535 85.06 63.0535Z" fill="white" stroke="white" stroke-miterlimit="10"/>
<path d="M104.469 46.0021C106.864 46.0021 108.806 44.0619 108.806 41.6684C108.806 39.275 106.864 37.3347 104.469 37.3347C102.073 37.3347 100.131 39.275 100.131 41.6684C100.131 44.0619 102.073 46.0021 104.469 46.0021Z" fill="white" stroke="white" stroke-miterlimit="10"/>
</g>
<defs>
<clipPath id="clip0">
<rect width="447" height="90" fill="white"/>
</clipPath>
</defs>
</svg>
