<svg xmlns="http://www.w3.org/2000/svg" xmlns:xlink="http://www.w3.org/1999/xlink" width="66" height="20" viewBox="0 0 66 20">
  <defs>
    <rect id="rect-1" width="66" height="20" x="0" y="0"/>
    <mask id="mask-2" maskContentUnits="userSpaceOnUse" maskUnits="userSpaceOnUse">
      <rect width="66" height="20" x="0" y="0" fill="black"/>
      <use fill="white" xlink:href="#rect-1"/>
    </mask>
  </defs>
  <g>
    <use fill="none" xlink:href="#rect-1"/>
    <g mask="url(#mask-2)">
      <path fill="rgb(255,255,255)" fill-rule="evenodd" d="M0 0h5.14453506c5.42873383.00061035 8.97423554 2.55725098 8.97423554 8.3383789 0 5.78161622-3.54449081 8.49157715-8.71772766 8.49157715H0V0zm15.25960922 0h4.3732109l.57041932 8.95666504c.02870178 1.44665527.05740357 2.70996094.08610153 4.23327637h.11480332c.25650787-1.52331543.59911728-2.81323243.91482162-4.23327637l1.25564194-4.69665527h2.68706512l1.17133332 4.69665527c.31570434 1.39501953.62782287 2.6850586.91482544 4.23327637h.1147995c.02870178-1.54821778.05739975-2.83825684.1147995-4.23327637L28.09045029 0h4.08620834l-2.28526306 16.82995605h-4.51491928l-1.0870247-5.21496582c-.2278099-1.0583496-.4556198-2.19335937-.51301955-3.19995117h-.08610153c-.1090889 1.07287598-.27069474 2.140625-.48431778 3.19995117l-1.0870247 5.21496582h-4.3732109L15.25960923 0zm23.0894127 0h-4.4019127v16.82995605h3.48709107v-5.21496582c0-1.88330078-.34440613-5.98828125-.54351425-7.79504394h.08610153l1.34173965 4.49169922 1.45833588 4.05334472h2.05745697l1.4296341-4.05334472 1.42784118-4.49169922h.08609772c-.17219544 1.8067627-.54351044 5.91174316-.54351044 7.79504394v5.21496582h3.54808044V0h-4.4019165l-1.83143616 5.9633789-.62782287 2.3232422h-.1147995l-.62782288-2.3232422L38.34902191 0zM4.91493224 13.75830078c2.91487885 0 4.88802338-1.39331055 4.88802338-5.41992187 0-4.02844239-1.97314453-5.26672364-4.88802338-5.26672364h-.68522072v10.68664551h.68522072z"/>
      <path fill="rgb(251,219,28)" fill-rule="evenodd" d="M53.02386259 20H66v-3.17H53.02386259V20z"/>
    </g>
  </g>
</svg>
