<svg width="414" height="317" viewBox="0 0 414 317" fill="none" xmlns="http://www.w3.org/2000/svg">
<g clip-path="url(#clip0)">
<path d="M411.159 155.952L156.387 5.34793V96.6936L99.4993 259.644L40.1304 276.944" stroke="white" stroke-miterlimit="10"/>
<path d="M12.9097 304.079L54.9821 113.994L156.387 96.6936" stroke="white" stroke-miterlimit="10"/>
<path d="M10 316C15.5228 316 20 311.523 20 306C20 300.477 15.5228 296 10 296C4.47715 296 0 300.477 0 306C0 311.523 4.47715 316 10 316Z" fill="#1DBAE1"/>
<path d="M231.075 58.5043C238.204 58.5043 243.984 52.7353 243.984 45.619C243.984 38.5026 238.204 32.7337 231.075 32.7337C223.945 32.7337 218.165 38.5026 218.165 45.619C218.165 52.7353 223.945 58.5043 231.075 58.5043Z" fill="#1DBAE1"/>
<path d="M407.527 160.438C411.102 160.438 414 157.546 414 153.978C414 150.409 411.102 147.517 407.527 147.517C403.953 147.517 401.055 150.409 401.055 153.978C401.055 157.546 403.953 160.438 407.527 160.438Z" fill="#1DBAE1"/>
<path d="M158.293 16.7258C162.92 16.7258 166.671 12.9816 166.671 8.36288C166.671 3.74419 162.92 0 158.293 0C153.666 0 149.914 3.74419 149.914 8.36288C149.914 12.9816 153.666 16.7258 158.293 16.7258Z" fill="#1DBAE1"/>
<path d="M99.2478 264.92C103.498 264.92 106.943 261.482 106.943 257.239C106.943 252.997 103.498 249.559 99.2478 249.559C94.9978 249.559 91.5525 252.997 91.5525 257.239C91.5525 261.482 94.9978 264.92 99.2478 264.92Z" fill="#1DBAE1"/>
<path d="M39.6953 284.362C43.9453 284.362 47.3906 280.923 47.3906 276.681C47.3906 272.439 43.9453 269 39.6953 269C35.4453 269 32 272.439 32 276.681C32 280.923 35.4453 284.362 39.6953 284.362Z" fill="#1DBAE1"/>
<path d="M156 113C161.523 113 166 108.523 166 103C166 97.4772 161.523 93 156 93C150.477 93 146 97.4772 146 103C146 108.523 150.477 113 156 113Z" fill="#1DBAE1"/>
<path d="M56 128C61.5228 128 66 123.523 66 118C66 112.477 61.5228 108 56 108C50.4772 108 46 112.477 46 118C46 123.523 50.4772 128 56 128Z" fill="#1DBAE1"/>
</g>
<defs>
<clipPath id="clip0">
<rect width="414" height="317" fill="white"/>
</clipPath>
</defs>
</svg>
