<svg width="51" height="63" viewBox="0 0 51 63" fill="none" xmlns="http://www.w3.org/2000/svg">
<g clip-path="url(#clip0)">
<path d="M25.02 50.13C20.5191 50.2063 16.0783 49.0884 12.15 46.89C8.42519 44.7853 5.34473 41.7048 3.23999 37.98C1.04164 34.0517 -0.0763135 29.611 -1.00168e-05 25.11C-0.0907739 20.5662 1.02737 16.0798 3.23999 12.11C5.34473 8.38522 8.42519 5.30475 12.15 3.20001C16.0783 1.00166 20.5191 -0.116293 25.02 -0.0399899C29.5085 -0.118791 33.937 0.999552 37.85 3.20001C41.5518 5.31796 44.6129 8.39634 46.71 12.11C48.9242 16.083 50.0714 20.5618 50.04 25.11C50.1123 29.6156 48.9799 34.0587 46.76 37.98C44.6327 41.6876 41.5576 44.7627 37.85 46.89C33.937 49.0905 29.5085 50.2088 25.02 50.13ZM25.02 43.83C28.3024 43.8819 31.5373 43.042 34.38 41.4C37.1076 39.8133 39.3486 37.51 40.86 34.74C42.4537 31.7841 43.2596 28.4677 43.2 25.11C43.2557 21.7369 42.4503 18.4053 40.86 15.43C39.3587 12.6422 37.1161 10.3235 34.38 8.73001C31.5373 7.08799 28.3024 6.24814 25.02 6.30001C21.7376 6.24814 18.5026 7.08799 15.66 8.73001C12.9168 10.3275 10.6622 12.6443 9.13999 15.43C7.51964 18.3957 6.69616 21.731 6.74999 25.11C6.69242 28.4736 7.5164 31.7937 9.13999 34.74C10.6721 37.508 12.9252 39.8094 15.66 41.4C18.5026 43.042 21.7376 43.8819 25.02 43.83Z" fill="#FDFEFE"/>
<path d="M7.15997 61.55L14.13 32.53L32.31 18.36" stroke="white" stroke-width="2" stroke-miterlimit="10"/>
<path d="M7.68001 62.42C9.6351 62.42 11.22 60.8351 11.22 58.88C11.22 56.9249 9.6351 55.34 7.68001 55.34C5.72493 55.34 4.14001 56.9249 4.14001 58.88C4.14001 60.8351 5.72493 62.42 7.68001 62.42Z" fill="white"/>
<path d="M14.43 37.23C16.7109 37.23 18.56 35.3809 18.56 33.1C18.56 30.8191 16.7109 28.97 14.43 28.97C12.1491 28.97 10.3 30.8191 10.3 33.1C10.3 35.3809 12.1491 37.23 14.43 37.23Z" fill="white"/>
<path d="M32.91 20.98C35.1909 20.98 37.04 19.1309 37.04 16.85C37.04 14.5691 35.1909 12.72 32.91 12.72C30.629 12.72 28.78 14.5691 28.78 16.85C28.78 19.1309 30.629 20.98 32.91 20.98Z" fill="white"/>
</g>
<defs>
<clipPath id="clip0">
<rect width="50.04" height="62.42" fill="white"/>
</clipPath>
</defs>
</svg>
